Coordinates
version=1
nRows=10
nColumns=40
inDegrees=yes

Units are S.I. units (second, meters, Newtons, ...)
Angles are in degrees.

endheader
time	pelvis_tilt	pelvis_list	pelvis_rotation	pelvis_tx	pelvis_ty	pelvis_tz	hip_flexion_r	hip_adduction_r	hip_rotation_r	knee_angle_r	knee_angle_r_beta	ankle_angle_r	subtalar_angle_r	mtp_angle_r	hip_flexion_l	hip_adduction_l	hip_rotation_l	knee_angle_l	knee_angle_l_beta	ankle_angle_l	subtalar_angle_l	mtp_angle_l	lumbar_extension	lumbar_bending	lumbar_rotation	arm_flex_r	arm_add_r	arm_rot_r	elbow_flex_r	pro_sup_r	wrist_flex_r	wrist_dev_r	arm_flex_l	arm_add_l	arm_rot_l	elbow_flex_l	pro_sup_l	wrist_flex_l	wrist_dev_l
      0.00000000	     -9.68745990	     -1.87339601	     -6.41467797	     -1.55601975	      0.83773335	      0.21602633	     11.40036773	      5.11683061	     -4.44172251	    -45.54438345	     -0.79489945	     10.66191415	     -3.20352818	    -13.36104706	     38.40408422	      3.34213633	      1.01369814	    -77.41030166	     -1.35106464	      4.73456446	      9.81476599	    -18.71792884	     -3.88023865	      4.33929921	      7.35107900	     -2.45347897	    -21.15650120	      5.85929828	    102.37056324	     89.95437384	      0.00000000	      0.00000000	    -25.77154286	     23.09169684	    -10.56916346	     74.85896477	     89.95437384	      0.00000000	      0.00000000
      0.01000000	     -9.82762819	     -1.19783053	     -6.25389916	     -1.52422293	      0.84206614	      0.21707891	      8.50794511	      4.08220425	     -4.45986046	    -43.25684665	     -0.75497440	      7.67146677	     -2.73168015	    -12.77627329	     40.46198782	      2.46581530	      0.88555301	    -74.04830712	     -1.29238676	      5.07451255	      8.92935058	    -18.47529589	     -3.32312893	      3.47920688	      8.05668845	     -1.93190394	    -20.47045704	      5.33324052	    106.15521810	     89.95437384	      0.00000000	      0.00000000	    -28.57849846	     25.17034255	    -10.78079915	     76.78820054	     89.95437384	      0.00000000	      0.00000000
      0.02000000	     -9.79331608	     -0.44607777	     -5.99862044	     -1.49135461	      0.84725102	      0.21801637	      5.36601471	      2.88446956	     -4.74847437	    -40.65932569	     -0.70963910	      3.78656347	     -2.15526301	    -11.86525863	     41.87363092	      1.47605128	      0.97337111	    -69.92319257	     -1.22038993	      4.70207564	      8.29192920	    -18.16536676	     -2.85848096	      2.49510317	      8.69336880	     -1.67180353	    -19.78084908	      4.86215802	    109.72511417	     89.95437384	      0.00000000	      0.00000000	    -31.31784418	     27.24248407	    -11.04444838	     78.77288565	     89.95437384	      0.00000000	      0.00000000
      0.03000000	    -10.12284760	      0.33681403	     -5.82289113	     -1.45815777	      0.85236845	      0.21897640	      2.80296807	      1.66977737	     -5.04506260	    -38.09107598	     -0.66481469	     -0.88885770	     -1.51299234	    -10.85546409	     43.17104400	      0.52463784	      1.24688925	    -65.11241806	     -1.13642608	      4.07708335	      8.02470638	    -17.60258222	     -1.91951179	      1.51560602	      9.27307444	     -1.57230977	    -19.01580023	      4.62725109	    112.86301437	     89.95437384	      0.00000000	      0.00000000	    -34.16136476	     28.96793520	    -11.02220045	     80.76201739	     89.95437384	      0.00000000	      0.00000000
      0.04000000	     -9.69675411	      1.21471354	     -5.43096837	     -1.42355488	      0.85890899	      0.21927667	     -0.75807282	      0.14311919	     -5.99175648	    -34.94195119	     -0.60985210	     -6.68707193	     -0.99764181	     -9.26544946	     43.20297117	     -0.75551078	      1.53755885	    -59.58148435	     -1.03989308	      2.82897344	      8.10671907	    -16.92016309	     -1.77118517	      0.38412173	      9.62852332	     -1.60193853	    -18.46313546	      4.54826143	    115.78799948	     89.95437384	      0.00000000	      0.00000000	    -36.75041881	     30.70378070	    -11.14500619	     82.76226438	     89.95437384	      0.00000000	      0.00000000
      0.05000000	     -9.39523786	      2.02823006	     -5.08736033	     -1.38862174	      0.86521813	      0.22006846	     -4.16642253	     -1.13597251	     -6.81589927	    -31.51529346	     -0.55004564	    -12.82750581	     -0.61977441	     -6.31356458	     42.91183111	     -1.96228657	      1.75902003	    -53.71689810	     -0.93753674	      1.26428379	      8.97140150	    -15.64973821	     -1.47739221	     -0.72990528	      9.92510701	     -1.87842198	    -17.85284597	      4.63216034	    118.35603928	     89.95437384	      0.00000000	      0.00000000	    -39.34878085	     32.10217708	    -10.78037312	     84.69121352	     89.95437384	      0.00000000	      0.00000000
      0.06000000	     -9.28689579	      2.81180796	     -4.77621401	     -1.35379353	      0.87092912	      0.22065883	     -7.05548729	     -2.33002564	     -7.70453795	    -28.15682648	     -0.49142933	    -20.64158801	     -0.88077906	     -3.15178557	     42.48978669	     -3.05487638	      2.10048503	    -47.56113917	     -0.83009847	     -1.02852711	      9.71288096	    -14.07715581	     -0.99918041	     -1.79137234	     10.08734720	     -2.24366016	    -17.35082852	      4.94417514	    120.55947247	     89.95437384	      0.00000000	      0.00000000	    -41.83248966	     33.18892402	    -10.25792338	     86.48885693	     89.95437384	      0.00000000	      0.00000000
      0.07000000	     -9.19803249	      3.22369019	     -4.65276759	     -1.31852844	      0.87619125	      0.22173807	     -9.60922296	     -2.93671137	     -7.71899596	    -25.19350805	     -0.43970967	    -26.54721336	      0.52470124	     19.60590103	     41.73054632	     -3.67072143	      2.44314896	    -41.50363834	     -0.72437514	     -2.20558084	      8.66456692	     -2.42122647	     -0.43982679	     -2.43428189	     10.29165895	     -2.71241056	    -17.00459459	      5.49836831	    122.18336580	     89.95437384	      0.00000000	      0.00000000	    -44.08530049	     34.02390893	     -9.66947146	     88.09716519	     89.95437384	      0.00000000	      0.00000000
      0.08000000	     -9.38595128	      3.45898815	     -4.45835904	     -1.28393625	      0.88027206	      0.22272365	    -11.56759154	     -3.23674511	     -7.05952638	    -22.69981420	     -0.39618650	    -32.48391800	      0.42928557	     20.61717764	     41.27673914	     -4.02066591	      2.95364148	    -35.58398084	     -0.62105763	     -5.58939251	      9.06403717	     -1.09740642	      0.31619284	     -2.88388584	     10.41871415	     -3.27258667	    -16.86894820	      6.12668883	    123.34639918	     89.95437384	      0.00000000	      0.00000000	    -45.91476970	     34.72710841	     -9.24343798	     89.42172623	     89.95437384	      0.00000000	      0.00000000
      0.09000000	     -9.90042519	      3.39799475	     -4.24702707	     -1.24978824	      0.88275429	      0.22379854	    -12.51010191	     -3.07922178	     -5.65991629	    -21.66678954	     -0.37815682	    -35.72224463	      0.24777686	     21.16416255	     41.05471103	     -4.12960962	      3.25465675	    -30.28459244	     -0.52856585	     -7.53383632	      8.75682054	     -0.20131576	      1.41428283	     -2.99530249	     10.46698392	     -3.98729059	    -16.81426025	      6.73753226	    124.00502520	     89.95437384	      0.00000000	      0.00000000	    -47.45494145	     35.29474633	     -8.66668603	     90.64170963	     89.95437384	      0.00000000	      0.00000000
